<svg width="56" height="40" viewBox="0 0 56 40" fill="none" xmlns="http://www.w3.org/2000/svg">
<path d="M12.6604 19.2909C11.6515 19.2909 10.7627 19.116 9.99397 18.7662C9.2253 18.4163 8.63276 17.9313 8.21638 17.3112C7.8 16.6751 7.59181 15.9436 7.59181 15.1167C7.59181 14.417 7.73594 13.781 8.02421 13.2085C8.32848 12.636 8.72884 12.1828 9.2253 11.8489C9.73776 11.5149 10.2983 11.348 10.9068 11.348C11.4673 11.348 11.9397 11.4911 12.3241 11.7773C12.7084 12.0476 12.9487 12.4293 13.0447 12.9223C12.212 12.9223 11.5474 13.1449 11.0509 13.5901C10.5545 14.0195 10.3063 14.6078 10.3063 15.3552C10.3063 16.039 10.5144 16.5876 10.9308 17.0011C11.3472 17.4145 11.8997 17.6212 12.5883 17.6212C13.4371 17.6212 14.1337 17.343 14.6782 16.7864C15.2387 16.2139 15.519 15.4983 15.519 14.6396C15.519 13.8923 15.3108 13.1846 14.8944 12.5168C14.478 11.8489 13.8535 11.0379 13.0207 10.0838C12.1559 9.09786 11.4993 8.25506 11.0509 7.55538C10.6185 6.8398 10.4023 6.06061 10.4023 5.21781C10.4023 4.39091 10.6346 3.65148 11.099 2.9995C11.5634 2.33162 12.204 1.80686 13.0207 1.42522C13.8375 1.04358 14.7583 0.852753 15.7832 0.852753C17.0804 0.852753 18.1133 1.15489 18.882 1.75916C19.6668 2.36343 20.0591 3.17442 20.0591 4.19214C20.0591 4.86002 19.891 5.40068 19.5547 5.81413C19.2184 6.22758 18.778 6.4343 18.2335 6.4343C17.6249 6.4343 17.1365 6.18782 16.7681 5.69486C17.0724 5.47224 17.3126 5.17805 17.4888 4.81231C17.6649 4.44657 17.753 4.06493 17.753 3.66738C17.753 3.15852 17.6009 2.75302 17.2966 2.45089C16.9923 2.14875 16.576 1.99769 16.0475 1.99769C15.4069 1.99769 14.8784 2.22826 14.462 2.68942C14.0617 3.13467 13.8615 3.70713 13.8615 4.40682C13.8615 5.04289 14.0457 5.63921 14.414 6.19577C14.7823 6.73643 15.3588 7.43612 16.1436 8.29482C16.7841 8.97859 17.2966 9.56696 17.681 10.0599C18.0813 10.5529 18.4176 11.1253 18.6899 11.7773C18.9781 12.4134 19.1223 13.1051 19.1223 13.8525C19.1223 14.8702 18.834 15.7925 18.2575 16.6194C17.697 17.4463 16.9203 18.0983 15.9274 18.5754C14.9505 19.0524 13.8615 19.2909 12.6604 19.2909ZM22.8532 19.0047C22.0845 19.0047 21.4599 18.7662 20.9795 18.2891C20.515 17.8121 20.2828 17.0965 20.2828 16.1424C20.2828 15.7448 20.3469 15.228 20.475 14.5919L22.1085 6.93521H25.5676L23.838 15.0451C23.79 15.2837 23.766 15.5063 23.766 15.713C23.766 16.365 24.0062 16.691 24.4866 16.691C24.935 16.691 25.3194 16.5081 25.6397 16.1424C25.96 15.7607 26.2162 15.2439 26.4084 14.5919L28.0419 6.93521H31.501L29.7714 15.0451C29.7074 15.2837 29.6753 15.5381 29.6753 15.8084C29.6753 16.1265 29.7474 16.357 29.8915 16.5002C30.0517 16.6274 30.3079 16.691 30.6602 16.691C31.1087 16.691 31.493 16.5002 31.8133 16.1185C32.1496 15.7369 32.4138 15.228 32.606 14.5919H33.6149C33.0224 16.3093 32.2857 17.4781 31.4049 18.0983C30.5401 18.7026 29.6673 19.0047 28.7865 19.0047C28.0979 19.0047 27.5454 18.8139 27.129 18.4322C26.7287 18.0506 26.4885 17.4861 26.4084 16.7387C25.8639 17.6133 25.2874 18.2096 24.6788 18.5276C24.0863 18.8457 23.4777 19.0047 22.8532 19.0047ZM34.2367 6.93521H37.6958L37.3835 8.41408C37.928 7.93702 38.4165 7.57128 38.8489 7.31685C39.2973 7.06242 39.7777 6.93521 40.2902 6.93521C40.8027 6.93521 41.203 7.11013 41.4913 7.45997C41.7956 7.80981 41.9477 8.23121 41.9477 8.72416C41.9477 9.18532 41.7956 9.59082 41.4913 9.94066C41.187 10.2905 40.7626 10.4654 40.2181 10.4654C39.8658 10.4654 39.6256 10.3859 39.4975 10.2269C39.3854 10.052 39.2973 9.80549 39.2332 9.48745C39.1852 9.28073 39.1371 9.12966 39.0891 9.03425C39.0411 8.93884 38.953 8.89113 38.8249 8.89113C38.4886 8.89113 38.2003 8.96269 37.9601 9.10581C37.7359 9.23302 37.4396 9.4636 37.0713 9.79754L35.1495 18.8616H31.6904L34.2367 6.93521ZM39.4728 24.8248C38.7202 24.8248 38.0636 24.5783 37.5031 24.0853C36.9265 23.6083 36.6383 22.9961 36.6383 22.2487C36.6383 21.5649 36.8144 21.0004 37.1668 20.5551C37.5191 20.1099 37.9755 19.7521 38.536 19.4818C39.0965 19.2273 39.8412 18.957 40.77 18.6708L43.6767 5.05084C43.997 3.52426 44.5575 2.46679 45.3582 1.87842C46.1749 1.29005 47.0718 0.99587 48.0486 0.99587C48.8013 0.99587 49.4579 1.24235 50.0184 1.73531C50.595 2.21236 50.8832 2.82458 50.8832 3.57197C50.8832 3.93771 50.8592 4.2637 50.8111 4.54993H49.6821C49.7141 4.20009 49.7302 3.98542 49.7302 3.90591C49.7302 3.65148 49.6421 3.4527 49.4659 3.30959C49.2898 3.16647 49.0736 3.09491 48.8173 3.09491C48.481 3.09491 48.1527 3.24598 47.8324 3.54812C47.5121 3.83435 47.2799 4.33526 47.1358 5.05084L46.7274 6.93521H48.481L48.3129 7.88932H46.5353L43.7728 20.7698C43.4525 22.3123 42.9 23.3698 42.1152 23.9422C41.3305 24.5306 40.4497 24.8248 39.4728 24.8248ZM38.9203 22.7019C39.5609 22.7019 40.0173 22.0817 40.2896 20.8414L40.6019 19.4579C39.7531 19.7441 39.1045 20.0701 38.6561 20.4359C38.1917 20.8175 37.9595 21.3105 37.9595 21.9147C37.9595 22.1056 38.0556 22.2805 38.2477 22.4395C38.4399 22.6144 38.6641 22.7019 38.9203 22.7019ZM3.4367 39.8759C2.34771 39.8759 1.51495 39.6135 0.938429 39.0887C0.361901 38.5481 0.0736389 37.7927 0.0736389 36.8227C0.0736389 36.3457 0.12969 35.8925 0.241792 35.4631L2.81213 23.5129L6.36736 23.0358L5.21431 28.4027C5.66272 28.1324 6.03105 27.9574 6.31932 27.8779C6.60758 27.7825 6.89584 27.7348 7.1841 27.7348C9.07382 27.7348 10.0187 29.0944 10.0187 31.8136C10.0187 32.9109 9.80248 34.0876 9.37009 35.3438C8.95371 36.5842 8.24907 37.6496 7.25617 38.5401C6.27928 39.4306 5.00612 39.8759 3.4367 39.8759ZM4.78192 37.5622C5.27837 37.5622 5.74279 37.26 6.17519 36.6558C6.60758 36.0356 6.95189 35.2723 7.20812 34.3659C7.46436 33.4436 7.59247 32.561 7.59247 31.7182C7.59247 31.0822 7.48037 30.5415 7.25617 30.0962C7.03196 29.651 6.71968 29.4284 6.31932 29.4284C6.0791 29.4284 5.80685 29.4681 5.50257 29.5476C5.21431 29.6112 5.01413 29.7146 4.90203 29.8577L3.58083 35.9163C3.53279 36.1071 3.50876 36.29 3.50876 36.4649C3.50876 37.1964 3.93315 37.5622 4.78192 37.5622ZM14.4227 39.8282C13.2376 39.8282 12.3008 39.526 11.6121 38.9218C10.9235 38.3175 10.5792 37.3634 10.5792 36.0594C10.5792 34.9781 10.8034 33.7775 11.2518 32.4577C11.7002 31.1378 12.4209 30.0008 13.4138 29.0467C14.4067 28.0767 15.6558 27.5917 17.1612 27.5917C19.211 27.5917 20.236 28.8638 20.236 31.4081V31.432C20.284 31.4479 20.3721 31.4558 20.5002 31.4558C21.0287 31.4558 21.6372 31.3207 22.3259 31.0504C23.0145 30.7641 23.6391 30.4222 24.1996 30.0247L24.4158 30.6687C23.9514 31.1617 23.3428 31.5831 22.5901 31.9329C21.8534 32.2668 21.0447 32.5054 20.1639 32.6485C20.0358 34.0956 19.7075 35.3597 19.179 36.4411C18.6505 37.5224 17.9699 38.3572 17.1372 38.9456C16.3044 39.534 15.3996 39.8282 14.4227 39.8282ZM15.3836 37.6814C15.7679 37.6814 16.1523 37.4667 16.5366 37.0374C16.921 36.5921 17.2573 35.9958 17.5455 35.2484C17.8338 34.4851 18.042 33.6424 18.1701 32.72C17.7377 32.6246 17.5215 32.2907 17.5215 31.7182C17.5215 31.0663 17.7697 30.6369 18.2662 30.4302C18.2342 29.9054 18.1541 29.5476 18.026 29.3568C17.8979 29.1501 17.6736 29.0467 17.3534 29.0467C16.8249 29.0467 16.3124 29.4284 15.816 30.1917C15.3195 30.9549 14.9191 31.8693 14.6149 32.9347C14.3106 34.0001 14.1585 34.9384 14.1585 35.7493C14.1585 36.5126 14.2465 37.0294 14.4227 37.2998C14.5989 37.5542 14.9191 37.6814 15.3836 37.6814ZM24.3546 39.8759C23.4418 39.8759 22.6811 39.5658 22.0725 38.9456C21.464 38.3254 21.1597 37.3554 21.1597 36.0356C21.1597 34.8588 21.3919 33.6264 21.8563 32.3384C22.3368 31.0344 23.0414 29.9372 23.9703 29.0467C24.9151 28.1403 26.0361 27.6871 27.3333 27.6871C27.9899 27.6871 28.4784 27.7984 28.7987 28.021C29.1189 28.2437 29.2791 28.5379 29.2791 28.9036V29.0706L29.5433 27.8064H33.0025L31.2729 35.9163C31.2088 36.1548 31.1768 36.4093 31.1768 36.6796C31.1768 37.3634 31.5051 37.7053 32.1617 37.7053C32.6101 37.7053 32.9945 37.4985 33.3148 37.0851C33.6511 36.6716 33.9153 36.131 34.1075 35.4631H35.1164C34.5239 37.1805 33.7872 38.3493 32.9064 38.9695C32.0416 39.5737 31.1688 39.8759 30.288 39.8759C29.6154 39.8759 29.0709 39.693 28.6545 39.3273C28.2542 38.9456 28.0139 38.397 27.9339 37.6814C27.4694 38.3334 26.949 38.8661 26.3724 39.2796C25.8119 39.6771 25.1393 39.8759 24.3546 39.8759ZM25.916 37.5622C26.3164 37.5622 26.7088 37.3793 27.0931 37.0135C27.4935 36.6319 27.7657 36.1151 27.9098 35.4631L29.0629 30.0724C29.0629 29.8657 28.9828 29.6669 28.8227 29.4761C28.6625 29.2693 28.4143 29.166 28.078 29.166C27.4374 29.166 26.8609 29.5397 26.3484 30.2871C25.836 31.0185 25.4356 31.909 25.1473 32.9586C24.8591 33.9922 24.7149 34.9065 24.7149 35.7016C24.7149 36.4967 24.827 37.0056 25.0512 37.2282C25.2915 37.4508 25.5797 37.5622 25.916 37.5622ZM35.7498 27.8064H39.2089L38.8966 29.2852C39.4411 28.8082 39.9296 28.4424 40.362 28.188C40.8104 27.9336 41.2908 27.8064 41.8033 27.8064C42.3157 27.8064 42.7161 27.9813 43.0044 28.3311C43.3086 28.681 43.4608 29.1024 43.4608 29.5953C43.4608 30.0565 43.3086 30.462 43.0044 30.8118C42.7001 31.1617 42.2757 31.3366 41.7312 31.3366C41.3789 31.3366 41.1387 31.2571 41.0105 31.0981C40.8984 30.9231 40.8104 30.6767 40.7463 30.3586C40.6983 30.1519 40.6502 30.0008 40.6022 29.9054C40.5541 29.81 40.4661 29.7623 40.3379 29.7623C40.0016 29.7623 39.7134 29.8339 39.4731 29.977C39.2489 30.1042 38.9527 30.3348 38.5843 30.6687L36.6626 39.7328H33.2035L35.7498 27.8064ZM46.0306 39.8759C45.1178 39.8759 44.3571 39.5658 43.7485 38.9456C43.14 38.3254 42.8357 37.3554 42.8357 36.0356C42.8357 34.8588 43.0679 33.6264 43.5323 32.3384C44.0128 31.0344 44.7174 29.9372 45.6463 29.0467C46.5911 28.1403 47.7121 27.6871 49.0093 27.6871C49.6659 27.6871 50.1544 27.7984 50.4746 28.021C50.7949 28.2437 50.9551 28.5379 50.9551 28.9036V28.999L52.1321 23.5129L55.6874 23.0358L52.9249 35.9163C52.8608 36.1548 52.8288 36.3854 52.8288 36.608C52.8288 37.2441 53.1571 37.5622 53.8137 37.5622C54.1019 37.5622 54.3582 37.5145 54.5824 37.419C54.5183 38.2141 54.23 38.8264 53.7176 39.2557C53.2211 39.6692 52.6286 39.8759 51.94 39.8759C51.2994 39.8759 50.7549 39.7169 50.3065 39.3988C49.8741 39.0649 49.5858 38.564 49.4417 37.8961C48.4808 39.2159 47.3438 39.8759 46.0306 39.8759ZM47.592 37.5622C47.9443 37.5622 48.2967 37.4111 48.649 37.109C49.0173 36.8068 49.2896 36.3854 49.4657 35.8448L49.5618 35.4631L50.7389 30.0008C50.5947 29.4443 50.2664 29.166 49.754 29.166C49.1134 29.166 48.5369 29.5397 48.0244 30.2871C47.5119 31.0185 47.1116 31.909 46.8233 32.9586C46.5351 33.9922 46.3909 34.9065 46.3909 35.7016C46.3909 36.4967 46.503 37.0056 46.7272 37.2282C46.9675 37.4508 47.2557 37.5622 47.592 37.5622Z" fill="white"/>
</svg>
