<svg width="0" height="0" class="hidden">
  <symbol xmlns="http://www.w3.org/2000/svg" viewBox="0 0 68 68" id="feat-3">
    <path d="M67.58 64.7842C67.4752 64.6494 64.9503 61.4478 59.6006 58.2906C56.9903 56.75 53.3914 55.0512 48.7861 53.8092C49.7611 50.514 50.8711 45.7687 51.3499 40.1027C51.8914 33.6964 51.5072 27.4363 50.2076 21.4964C48.5791 14.0532 45.5041 7.10361 41.0679 0.840703C40.6944 0.313437 40.0884 0 39.4422 0C38.7961 0 38.1901 0.313305 37.8166 0.840703C36.4181 2.81509 35.155 4.85802 34.0297 6.96283C32.9044 4.85788 31.6415 2.81509 30.2428 0.840703C29.8694 0.313437 29.2633 0 28.6172 0C27.9711 0 27.3651 0.313305 26.9916 0.840703C22.5554 7.10348 19.4804 14.053 17.8518 21.4965C16.5523 27.4364 16.168 33.6964 16.7095 40.1029C17.2019 45.9283 18.3614 50.7807 19.3554 54.0843C15.1095 55.2884 11.6855 56.8436 9.12061 58.2632C3.46718 61.3926 0.622734 64.5502 0.504398 64.683C-0.0175553 65.2692 -0.146649 66.1072 0.174492 66.8232C0.495632 67.5391 1.20737 68 1.99216 68H66.0078C66.7688 68 67.4633 67.5664 67.7976 66.8828C68.1317 66.1992 68.0474 65.3849 67.58 64.7842ZM20.9628 26.9581L34.3264 17.8771C34.7222 19.1401 35.0719 20.4201 35.3722 21.7176L20.5296 31.8038C20.6034 30.2441 20.7425 28.6243 20.9628 26.9581ZM21.9738 21.4539C23.1906 16.3163 25.2642 10.9068 28.6188 5.57441C30.3273 8.279 31.7667 11.0904 32.9405 14.0015L21.9738 21.4539ZM20.4961 36.6438L36.179 25.9865C36.8241 30.3597 36.9548 34.9112 36.5666 39.6274C36.1538 44.6411 35.1975 48.9293 34.323 52.0159C30.2386 52.0394 26.5399 52.4701 23.2384 53.1424C22.2965 50.0504 21.1538 45.3767 20.6797 39.7673C20.5957 38.7749 20.5323 37.7314 20.4961 36.6438ZM34.6735 55.9971C45.4742 55.9971 52.9886 59.0514 57.3905 61.6136C58.8019 62.4352 59.9934 63.2602 60.9717 64.0156H7.43402C12.1776 60.6701 21.2129 55.9971 34.6735 55.9971ZM39.444 5.57441C45.7576 15.5693 48.4302 27.0098 47.3915 39.6274C46.9364 45.1541 45.8212 49.7995 44.8829 52.9247C42.8862 52.5547 40.7358 52.2795 38.4326 52.133C39.2726 48.9847 40.1222 44.8692 40.5251 40.1029C41.0665 33.6965 40.6823 27.4364 39.3827 21.4965C38.6317 18.0636 37.5721 14.7359 36.214 11.532C37.1285 9.54749 38.1975 7.55557 39.444 5.57441Z" fill="black"></path>
  </symbol>
  <symbol xmlns="http://www.w3.org/2000/svg" viewBox="0 0 27 24" id="hamburger">
    <g clip-path="url(#clip0_2_1091)">
      <path d="M24 0H2.06335C0.868778 0 0 0.868778 0 2.06335V2.38914C0 3.47511 0.868778 4.34389 2.06335 4.34389H24.1086C25.1946 4.34389 26.1719 3.47511 26.1719 2.28054V2.06335C26.0633 0.868778 25.1946 0 24 0Z" fill="#0D0E0F"></path>
      <path d="M24 9.77374H2.06335C0.868778 9.77374 0 10.7511 0 11.8371V12.1629C0 13.2489 0.868778 14.2262 2.06335 14.2262H24.1086C25.1946 14.2262 26.1719 13.3575 26.1719 12.1629V11.8371C26.0633 10.7511 25.1946 9.77374 24 9.77374Z" fill="#0D0E0F"></path>
      <path d="M24 19.5475H2.06335C0.977376 19.5475 0 20.4163 0 21.6109V21.9367C0 23.0226 0.868778 24 2.06335 24H24.1086C25.1946 24 26.1719 23.1312 26.1719 21.9367V21.6109C26.0633 20.5249 25.1946 19.5475 24 19.5475Z" fill="#0D0E0F"></path>
    </g>
    <defs>
      <clipPath id="clip0_2_1091">
        <rect width="26.0633" height="24" fill="white"></rect>
      </clipPath>
    </defs>
  </symbol>
  <symbol xmlns="http://www.w3.org/2000/svg" viewBox="0 0 24 24" id="in">
    <g clip-path="url(#clip0_2_1212)">
      <path d="M21.1226 0H2.87738C1.3079 0 0 1.24251 0 2.81199V21.188C0 22.7575 1.3079 24 2.87738 24H21.1226C22.6921 24 24 22.7575 24 21.188V2.81199C24 1.24251 22.6921 0 21.1226 0ZM17.2643 3.72752C17.2643 3.33515 17.5913 3.00817 17.9837 3.00817H20.2725C20.6649 3.00817 20.9918 3.33515 20.9918 3.72752V5.95095C20.9918 6.34332 20.6649 6.6703 20.2725 6.6703H18.049C17.6567 6.6703 17.3297 6.34332 17.3297 5.95095L17.2643 3.72752ZM12.0327 7.38965C14.5831 7.38965 16.6757 9.41689 16.6757 11.9673C16.6757 14.5177 14.5831 16.545 12.0327 16.545C9.48229 16.545 7.38965 14.5177 7.38965 11.9673C7.38965 9.48229 9.48229 7.38965 12.0327 7.38965ZM21.7112 20.9918C21.7112 21.3842 21.3842 21.7112 20.9918 21.7112H3.00817C2.6158 21.7112 2.28883 21.3842 2.28883 20.9918V9.74387H5.23161C4.83924 10.3324 4.70845 11.3787 4.70845 12.0327C4.70845 16.0218 7.9782 19.2916 12.0327 19.2916C16.0872 19.2916 19.3569 16.0218 19.3569 12.0327C19.3569 11.3787 19.2916 10.3324 18.7684 9.74387H21.7766L21.7112 20.9918Z"></path>
    </g>
    <defs>
      <clipPath id="clip0_2_1212">
        <rect width="24" height="24"></rect>
      </clipPath>
    </defs>
  </symbol>
  <symbol xmlns="http://www.w3.org/2000/svg" viewBox="0 0 32 32" id="length">
    <path d="M11.0064 13.0953L11.0072 9L4 16.0096L11.0072 23.0185L11.0064 18.9232L20.992 18.9248V23.0185L28 16.0096L20.992 9V13.0953H11.0064Z"></path>
  </symbol>
  <symbol xmlns="http://www.w3.org/2000/svg" viewBox="0 0 32 32" id="life time">
    <path d="M24 26H23V22.727C23 21.099 22.307 19.541 21.097 18.453L19.404 16.93C19.137 16.689 18.99 16.359 18.99 16C18.99 15.641 19.137 15.311 19.404 15.071L21.097 13.548C22.307 12.458 23 10.901 23 9.273V6H24C24.553 6 25 5.552 25 5C25 4.448 24.553 4 24 4H8C7.447 4 7 4.448 7 5C7 5.552 7.447 6 8 6H9V9.273C9 10.901 9.693 12.459 10.903 13.547L12.596 15.07C12.863 15.311 13.01 15.641 13.01 16C13.01 16.359 12.863 16.689 12.596 16.929L10.903 18.452C9.693 19.542 9 21.099 9 22.727V26H8C7.447 26 7 26.448 7 27C7 27.552 7.447 28 8 28H24C24.553 28 25 27.552 25 27C25 26.448 24.553 26 24 26ZM12 22.829C12 22.094 12.286 21.404 12.806 20.884L15.47 18.22C15.763 17.927 16.238 17.927 16.531 18.22L19.195 20.884C19.715 21.404 20.001 22.094 20.001 22.829V26H12V22.829Z"></path>
  </symbol>
  <symbol xmlns="http://www.w3.org/2000/svg" viewBox="0 0 56 40" id="logo">
    <path d="M12.6604 19.2909C11.6515 19.2909 10.7627 19.116 9.99397 18.7662C9.2253 18.4163 8.63276 17.9313 8.21638 17.3112C7.8 16.6751 7.59181 15.9436 7.59181 15.1167C7.59181 14.417 7.73594 13.781 8.02421 13.2085C8.32848 12.636 8.72884 12.1828 9.2253 11.8489C9.73776 11.5149 10.2983 11.348 10.9068 11.348C11.4673 11.348 11.9397 11.4911 12.3241 11.7773C12.7084 12.0476 12.9487 12.4293 13.0447 12.9223C12.212 12.9223 11.5474 13.1449 11.0509 13.5901C10.5545 14.0195 10.3063 14.6078 10.3063 15.3552C10.3063 16.039 10.5144 16.5876 10.9308 17.0011C11.3472 17.4145 11.8997 17.6212 12.5883 17.6212C13.4371 17.6212 14.1337 17.343 14.6782 16.7864C15.2387 16.2139 15.519 15.4983 15.519 14.6396C15.519 13.8923 15.3108 13.1846 14.8944 12.5168C14.478 11.8489 13.8535 11.0379 13.0207 10.0838C12.1559 9.09786 11.4993 8.25506 11.0509 7.55538C10.6185 6.8398 10.4023 6.06061 10.4023 5.21781C10.4023 4.39091 10.6346 3.65148 11.099 2.9995C11.5634 2.33162 12.204 1.80686 13.0207 1.42522C13.8375 1.04358 14.7583 0.852753 15.7832 0.852753C17.0804 0.852753 18.1133 1.15489 18.882 1.75916C19.6668 2.36343 20.0591 3.17442 20.0591 4.19214C20.0591 4.86002 19.891 5.40068 19.5547 5.81413C19.2184 6.22758 18.778 6.4343 18.2335 6.4343C17.6249 6.4343 17.1365 6.18782 16.7681 5.69486C17.0724 5.47224 17.3126 5.17805 17.4888 4.81231C17.6649 4.44657 17.753 4.06493 17.753 3.66738C17.753 3.15852 17.6009 2.75302 17.2966 2.45089C16.9923 2.14875 16.576 1.99769 16.0475 1.99769C15.4069 1.99769 14.8784 2.22826 14.462 2.68942C14.0617 3.13467 13.8615 3.70713 13.8615 4.40682C13.8615 5.04289 14.0457 5.63921 14.414 6.19577C14.7823 6.73643 15.3588 7.43612 16.1436 8.29482C16.7841 8.97859 17.2966 9.56696 17.681 10.0599C18.0813 10.5529 18.4176 11.1253 18.6899 11.7773C18.9781 12.4134 19.1223 13.1051 19.1223 13.8525C19.1223 14.8702 18.834 15.7925 18.2575 16.6194C17.697 17.4463 16.9203 18.0983 15.9274 18.5754C14.9505 19.0524 13.8615 19.2909 12.6604 19.2909ZM22.8532 19.0047C22.0845 19.0047 21.4599 18.7662 20.9795 18.2891C20.515 17.8121 20.2828 17.0965 20.2828 16.1424C20.2828 15.7448 20.3469 15.228 20.475 14.5919L22.1085 6.93521H25.5676L23.838 15.0451C23.79 15.2837 23.766 15.5063 23.766 15.713C23.766 16.365 24.0062 16.691 24.4866 16.691C24.935 16.691 25.3194 16.5081 25.6397 16.1424C25.96 15.7607 26.2162 15.2439 26.4084 14.5919L28.0419 6.93521H31.501L29.7714 15.0451C29.7074 15.2837 29.6753 15.5381 29.6753 15.8084C29.6753 16.1265 29.7474 16.357 29.8915 16.5002C30.0517 16.6274 30.3079 16.691 30.6602 16.691C31.1087 16.691 31.493 16.5002 31.8133 16.1185C32.1496 15.7369 32.4138 15.228 32.606 14.5919H33.6149C33.0224 16.3093 32.2857 17.4781 31.4049 18.0983C30.5401 18.7026 29.6673 19.0047 28.7865 19.0047C28.0979 19.0047 27.5454 18.8139 27.129 18.4322C26.7287 18.0506 26.4885 17.4861 26.4084 16.7387C25.8639 17.6133 25.2874 18.2096 24.6788 18.5276C24.0863 18.8457 23.4777 19.0047 22.8532 19.0047ZM34.2367 6.93521H37.6958L37.3835 8.41408C37.928 7.93702 38.4165 7.57128 38.8489 7.31685C39.2973 7.06242 39.7777 6.93521 40.2902 6.93521C40.8027 6.93521 41.203 7.11013 41.4913 7.45997C41.7956 7.80981 41.9477 8.23121 41.9477 8.72416C41.9477 9.18532 41.7956 9.59082 41.4913 9.94066C41.187 10.2905 40.7626 10.4654 40.2181 10.4654C39.8658 10.4654 39.6256 10.3859 39.4975 10.2269C39.3854 10.052 39.2973 9.80549 39.2332 9.48745C39.1852 9.28073 39.1371 9.12966 39.0891 9.03425C39.0411 8.93884 38.953 8.89113 38.8249 8.89113C38.4886 8.89113 38.2003 8.96269 37.9601 9.10581C37.7359 9.23302 37.4396 9.4636 37.0713 9.79754L35.1495 18.8616H31.6904L34.2367 6.93521ZM39.4728 24.8248C38.7202 24.8248 38.0636 24.5783 37.5031 24.0853C36.9265 23.6083 36.6383 22.9961 36.6383 22.2487C36.6383 21.5649 36.8144 21.0004 37.1668 20.5551C37.5191 20.1099 37.9755 19.7521 38.536 19.4818C39.0965 19.2273 39.8412 18.957 40.77 18.6708L43.6767 5.05084C43.997 3.52426 44.5575 2.46679 45.3582 1.87842C46.1749 1.29005 47.0718 0.99587 48.0486 0.99587C48.8013 0.99587 49.4579 1.24235 50.0184 1.73531C50.595 2.21236 50.8832 2.82458 50.8832 3.57197C50.8832 3.93771 50.8592 4.2637 50.8111 4.54993H49.6821C49.7141 4.20009 49.7302 3.98542 49.7302 3.90591C49.7302 3.65148 49.6421 3.4527 49.4659 3.30959C49.2898 3.16647 49.0736 3.09491 48.8173 3.09491C48.481 3.09491 48.1527 3.24598 47.8324 3.54812C47.5121 3.83435 47.2799 4.33526 47.1358 5.05084L46.7274 6.93521H48.481L48.3129 7.88932H46.5353L43.7728 20.7698C43.4525 22.3123 42.9 23.3698 42.1152 23.9422C41.3305 24.5306 40.4497 24.8248 39.4728 24.8248ZM38.9203 22.7019C39.5609 22.7019 40.0173 22.0817 40.2896 20.8414L40.6019 19.4579C39.7531 19.7441 39.1045 20.0701 38.6561 20.4359C38.1917 20.8175 37.9595 21.3105 37.9595 21.9147C37.9595 22.1056 38.0556 22.2805 38.2477 22.4395C38.4399 22.6144 38.6641 22.7019 38.9203 22.7019ZM3.4367 39.8759C2.34771 39.8759 1.51495 39.6135 0.938429 39.0887C0.361901 38.5481 0.0736389 37.7927 0.0736389 36.8227C0.0736389 36.3457 0.12969 35.8925 0.241792 35.4631L2.81213 23.5129L6.36736 23.0358L5.21431 28.4027C5.66272 28.1324 6.03105 27.9574 6.31932 27.8779C6.60758 27.7825 6.89584 27.7348 7.1841 27.7348C9.07382 27.7348 10.0187 29.0944 10.0187 31.8136C10.0187 32.9109 9.80248 34.0876 9.37009 35.3438C8.95371 36.5842 8.24907 37.6496 7.25617 38.5401C6.27928 39.4306 5.00612 39.8759 3.4367 39.8759ZM4.78192 37.5622C5.27837 37.5622 5.74279 37.26 6.17519 36.6558C6.60758 36.0356 6.95189 35.2723 7.20812 34.3659C7.46436 33.4436 7.59247 32.561 7.59247 31.7182C7.59247 31.0822 7.48037 30.5415 7.25617 30.0962C7.03196 29.651 6.71968 29.4284 6.31932 29.4284C6.0791 29.4284 5.80685 29.4681 5.50257 29.5476C5.21431 29.6112 5.01413 29.7146 4.90203 29.8577L3.58083 35.9163C3.53279 36.1071 3.50876 36.29 3.50876 36.4649C3.50876 37.1964 3.93315 37.5622 4.78192 37.5622ZM14.4227 39.8282C13.2376 39.8282 12.3008 39.526 11.6121 38.9218C10.9235 38.3175 10.5792 37.3634 10.5792 36.0594C10.5792 34.9781 10.8034 33.7775 11.2518 32.4577C11.7002 31.1378 12.4209 30.0008 13.4138 29.0467C14.4067 28.0767 15.6558 27.5917 17.1612 27.5917C19.211 27.5917 20.236 28.8638 20.236 31.4081V31.432C20.284 31.4479 20.3721 31.4558 20.5002 31.4558C21.0287 31.4558 21.6372 31.3207 22.3259 31.0504C23.0145 30.7641 23.6391 30.4222 24.1996 30.0247L24.4158 30.6687C23.9514 31.1617 23.3428 31.5831 22.5901 31.9329C21.8534 32.2668 21.0447 32.5054 20.1639 32.6485C20.0358 34.0956 19.7075 35.3597 19.179 36.4411C18.6505 37.5224 17.9699 38.3572 17.1372 38.9456C16.3044 39.534 15.3996 39.8282 14.4227 39.8282ZM15.3836 37.6814C15.7679 37.6814 16.1523 37.4667 16.5366 37.0374C16.921 36.5921 17.2573 35.9958 17.5455 35.2484C17.8338 34.4851 18.042 33.6424 18.1701 32.72C17.7377 32.6246 17.5215 32.2907 17.5215 31.7182C17.5215 31.0663 17.7697 30.6369 18.2662 30.4302C18.2342 29.9054 18.1541 29.5476 18.026 29.3568C17.8979 29.1501 17.6736 29.0467 17.3534 29.0467C16.8249 29.0467 16.3124 29.4284 15.816 30.1917C15.3195 30.9549 14.9191 31.8693 14.6149 32.9347C14.3106 34.0001 14.1585 34.9384 14.1585 35.7493C14.1585 36.5126 14.2465 37.0294 14.4227 37.2998C14.5989 37.5542 14.9191 37.6814 15.3836 37.6814ZM24.3546 39.8759C23.4418 39.8759 22.6811 39.5658 22.0725 38.9456C21.464 38.3254 21.1597 37.3554 21.1597 36.0356C21.1597 34.8588 21.3919 33.6264 21.8563 32.3384C22.3368 31.0344 23.0414 29.9372 23.9703 29.0467C24.9151 28.1403 26.0361 27.6871 27.3333 27.6871C27.9899 27.6871 28.4784 27.7984 28.7987 28.021C29.1189 28.2437 29.2791 28.5379 29.2791 28.9036V29.0706L29.5433 27.8064H33.0025L31.2729 35.9163C31.2088 36.1548 31.1768 36.4093 31.1768 36.6796C31.1768 37.3634 31.5051 37.7053 32.1617 37.7053C32.6101 37.7053 32.9945 37.4985 33.3148 37.0851C33.6511 36.6716 33.9153 36.131 34.1075 35.4631H35.1164C34.5239 37.1805 33.7872 38.3493 32.9064 38.9695C32.0416 39.5737 31.1688 39.8759 30.288 39.8759C29.6154 39.8759 29.0709 39.693 28.6545 39.3273C28.2542 38.9456 28.0139 38.397 27.9339 37.6814C27.4694 38.3334 26.949 38.8661 26.3724 39.2796C25.8119 39.6771 25.1393 39.8759 24.3546 39.8759ZM25.916 37.5622C26.3164 37.5622 26.7088 37.3793 27.0931 37.0135C27.4935 36.6319 27.7657 36.1151 27.9098 35.4631L29.0629 30.0724C29.0629 29.8657 28.9828 29.6669 28.8227 29.4761C28.6625 29.2693 28.4143 29.166 28.078 29.166C27.4374 29.166 26.8609 29.5397 26.3484 30.2871C25.836 31.0185 25.4356 31.909 25.1473 32.9586C24.8591 33.9922 24.7149 34.9065 24.7149 35.7016C24.7149 36.4967 24.827 37.0056 25.0512 37.2282C25.2915 37.4508 25.5797 37.5622 25.916 37.5622ZM35.7498 27.8064H39.2089L38.8966 29.2852C39.4411 28.8082 39.9296 28.4424 40.362 28.188C40.8104 27.9336 41.2908 27.8064 41.8033 27.8064C42.3157 27.8064 42.7161 27.9813 43.0044 28.3311C43.3086 28.681 43.4608 29.1024 43.4608 29.5953C43.4608 30.0565 43.3086 30.462 43.0044 30.8118C42.7001 31.1617 42.2757 31.3366 41.7312 31.3366C41.3789 31.3366 41.1387 31.2571 41.0105 31.0981C40.8984 30.9231 40.8104 30.6767 40.7463 30.3586C40.6983 30.1519 40.6502 30.0008 40.6022 29.9054C40.5541 29.81 40.4661 29.7623 40.3379 29.7623C40.0016 29.7623 39.7134 29.8339 39.4731 29.977C39.2489 30.1042 38.9527 30.3348 38.5843 30.6687L36.6626 39.7328H33.2035L35.7498 27.8064ZM46.0306 39.8759C45.1178 39.8759 44.3571 39.5658 43.7485 38.9456C43.14 38.3254 42.8357 37.3554 42.8357 36.0356C42.8357 34.8588 43.0679 33.6264 43.5323 32.3384C44.0128 31.0344 44.7174 29.9372 45.6463 29.0467C46.5911 28.1403 47.7121 27.6871 49.0093 27.6871C49.6659 27.6871 50.1544 27.7984 50.4746 28.021C50.7949 28.2437 50.9551 28.5379 50.9551 28.9036V28.999L52.1321 23.5129L55.6874 23.0358L52.9249 35.9163C52.8608 36.1548 52.8288 36.3854 52.8288 36.608C52.8288 37.2441 53.1571 37.5622 53.8137 37.5622C54.1019 37.5622 54.3582 37.5145 54.5824 37.419C54.5183 38.2141 54.23 38.8264 53.7176 39.2557C53.2211 39.6692 52.6286 39.8759 51.94 39.8759C51.2994 39.8759 50.7549 39.7169 50.3065 39.3988C49.8741 39.0649 49.5858 38.564 49.4417 37.8961C48.4808 39.2159 47.3438 39.8759 46.0306 39.8759ZM47.592 37.5622C47.9443 37.5622 48.2967 37.4111 48.649 37.109C49.0173 36.8068 49.2896 36.3854 49.4657 35.8448L49.5618 35.4631L50.7389 30.0008C50.5947 29.4443 50.2664 29.166 49.754 29.166C49.1134 29.166 48.5369 29.5397 48.0244 30.2871C47.5119 31.0185 47.1116 31.909 46.8233 32.9586C46.5351 33.9922 46.3909 34.9065 46.3909 35.7016C46.3909 36.4967 46.503 37.0056 46.7272 37.2282C46.9675 37.4508 47.2557 37.5622 47.592 37.5622Z"></path>
  </symbol>
  <symbol xmlns="http://www.w3.org/2000/svg" viewBox="0 0 76 95" id="marker">
    <g clip-path="url(#clip0_2_1160)">
      <path d="M38 0C24.7826 0 0 10 0 38.3333C0 66.6667 38 95 38 95C38 95 76 66.6667 76 38.3333C76 10 51.2174 0 38 0Z" fill="#FEDB3F"></path>
      <path d="M22.7667 37.432C21.7587 37.432 20.8707 37.256 20.1027 36.904C19.3347 36.552 18.7427 36.064 18.3267 35.44C17.9107 34.8 17.7027 34.064 17.7027 33.232C17.7027 32.528 17.8467 31.888 18.1347 31.312C18.4387 30.736 18.8387 30.28 19.3347 29.944C19.8467 29.608 20.4067 29.44 21.0147 29.44C21.5747 29.44 22.0467 29.584 22.4307 29.872C22.8147 30.144 23.0547 30.528 23.1507 31.024C22.3187 31.024 21.6547 31.248 21.1587 31.696C20.6627 32.128 20.4147 32.72 20.4147 33.472C20.4147 34.16 20.6227 34.712 21.0387 35.128C21.4547 35.544 22.0067 35.752 22.6947 35.752C23.5427 35.752 24.2387 35.472 24.7827 34.912C25.3427 34.336 25.6227 33.616 25.6227 32.752C25.6227 32 25.4147 31.288 24.9987 30.616C24.5827 29.944 23.9587 29.128 23.1267 28.168C22.2627 27.176 21.6067 26.328 21.1587 25.624C20.7267 24.904 20.5107 24.12 20.5107 23.272C20.5107 22.44 20.7427 21.696 21.2067 21.04C21.6707 20.368 22.3107 19.84 23.1267 19.456C23.9427 19.072 24.8627 18.88 25.8867 18.88C27.1827 18.88 28.2147 19.184 28.9827 19.792C29.7667 20.4 30.1587 21.216 30.1587 22.24C30.1587 22.912 29.9907 23.456 29.6547 23.872C29.3187 24.288 28.8787 24.496 28.3347 24.496C27.7267 24.496 27.2387 24.248 26.8707 23.752C27.1747 23.528 27.4147 23.232 27.5907 22.864C27.7667 22.496 27.8547 22.112 27.8547 21.712C27.8547 21.2 27.7027 20.792 27.3987 20.488C27.0947 20.184 26.6787 20.032 26.1507 20.032C25.5107 20.032 24.9827 20.264 24.5667 20.728C24.1667 21.176 23.9667 21.752 23.9667 22.456C23.9667 23.096 24.1507 23.696 24.5187 24.256C24.8867 24.8 25.4627 25.504 26.2467 26.368C26.8867 27.056 27.3987 27.648 27.7827 28.144C28.1827 28.64 28.5187 29.216 28.7907 29.872C29.0787 30.512 29.2227 31.208 29.2227 31.96C29.2227 32.984 28.9347 33.912 28.3587 34.744C27.7987 35.576 27.0227 36.232 26.0307 36.712C25.0547 37.192 23.9667 37.432 22.7667 37.432ZM32.9502 37.144C32.1822 37.144 31.5582 36.904 31.0782 36.424C30.6142 35.944 30.3822 35.224 30.3822 34.264C30.3822 33.864 30.4462 33.344 30.5742 32.704L32.2062 25H35.6622L33.9342 33.16C33.8862 33.4 33.8622 33.624 33.8622 33.832C33.8622 34.488 34.1022 34.816 34.5822 34.816C35.0302 34.816 35.4142 34.632 35.7342 34.264C36.0542 33.88 36.3102 33.36 36.5022 32.704L38.1342 25H41.5902L39.8622 33.16C39.7982 33.4 39.7662 33.656 39.7662 33.928C39.7662 34.248 39.8382 34.48 39.9822 34.624C40.1422 34.752 40.3982 34.816 40.7502 34.816C41.1982 34.816 41.5822 34.624 41.9022 34.24C42.2382 33.856 42.5022 33.344 42.6942 32.704H43.7022C43.1102 34.432 42.3742 35.608 41.4942 36.232C40.6302 36.84 39.7582 37.144 38.8782 37.144C38.1902 37.144 37.6382 36.952 37.2222 36.568C36.8222 36.184 36.5822 35.616 36.5022 34.864C35.9582 35.744 35.3822 36.344 34.7742 36.664C34.1822 36.984 33.5742 37.144 32.9502 37.144ZM44.3234 25H47.7794L47.4674 26.488C48.0114 26.008 48.4994 25.64 48.9314 25.384C49.3794 25.128 49.8594 25 50.3714 25C50.8834 25 51.2834 25.176 51.5714 25.528C51.8754 25.88 52.0274 26.304 52.0274 26.8C52.0274 27.264 51.8754 27.672 51.5714 28.024C51.2674 28.376 50.8434 28.552 50.2994 28.552C49.9474 28.552 49.7074 28.472 49.5794 28.312C49.4674 28.136 49.3794 27.888 49.3154 27.568C49.2674 27.36 49.2194 27.208 49.1714 27.112C49.1234 27.016 49.0354 26.968 48.9074 26.968C48.5714 26.968 48.2834 27.04 48.0434 27.184C47.8194 27.312 47.5234 27.544 47.1554 27.88L45.2354 37H41.7794L44.3234 25ZM49.5548 43C48.8028 43 48.1468 42.752 47.5868 42.256C47.0108 41.776 46.7228 41.16 46.7228 40.408C46.7228 39.72 46.8988 39.152 47.2508 38.704C47.6028 38.256 48.0588 37.896 48.6188 37.624C49.1788 37.368 49.9228 37.096 50.8508 36.808L53.7548 23.104C54.0748 21.568 54.6348 20.504 55.4348 19.912C56.2508 19.32 57.1468 19.024 58.1228 19.024C58.8748 19.024 59.5308 19.272 60.0908 19.768C60.6668 20.248 60.9548 20.864 60.9548 21.616C60.9548 21.984 60.9308 22.312 60.8828 22.6H59.7548C59.7868 22.248 59.8028 22.032 59.8028 21.952C59.8028 21.696 59.7148 21.496 59.5388 21.352C59.3628 21.208 59.1468 21.136 58.8908 21.136C58.5548 21.136 58.2268 21.288 57.9068 21.592C57.5868 21.88 57.3548 22.384 57.2108 23.104L56.8028 25H58.5548L58.3868 25.96H56.6108L53.8508 38.92C53.5308 40.472 52.9788 41.536 52.1948 42.112C51.4108 42.704 50.5308 43 49.5548 43ZM49.0028 40.864C49.6428 40.864 50.0988 40.24 50.3708 38.992L50.6828 37.6C49.8348 37.888 49.1868 38.216 48.7388 38.584C48.2748 38.968 48.0428 39.464 48.0428 40.072C48.0428 40.264 48.1388 40.44 48.3308 40.6C48.5228 40.776 48.7468 40.864 49.0028 40.864ZM13.5514 58.144C12.4634 58.144 11.6314 57.88 11.0554 57.352C10.4794 56.808 10.1914 56.048 10.1914 55.072C10.1914 54.592 10.2474 54.136 10.3594 53.704L12.9274 41.68L16.4794 41.2L15.3274 46.6C15.7754 46.328 16.1434 46.152 16.4314 46.072C16.7194 45.976 17.0074 45.928 17.2954 45.928C19.1834 45.928 20.1274 47.296 20.1274 50.032C20.1274 51.136 19.9114 52.32 19.4794 53.584C19.0634 54.832 18.3594 55.904 17.3674 56.8C16.3914 57.696 15.1194 58.144 13.5514 58.144ZM14.8954 55.816C15.3914 55.816 15.8554 55.512 16.2874 54.904C16.7194 54.28 17.0634 53.512 17.3194 52.6C17.5754 51.672 17.7034 50.784 17.7034 49.936C17.7034 49.296 17.5914 48.752 17.3674 48.304C17.1434 47.856 16.8314 47.632 16.4314 47.632C16.1914 47.632 15.9194 47.672 15.6154 47.752C15.3274 47.816 15.1274 47.92 15.0154 48.064L13.6954 54.16C13.6474 54.352 13.6234 54.536 13.6234 54.712C13.6234 55.448 14.0474 55.816 14.8954 55.816ZM24.5274 58.096C23.3434 58.096 22.4074 57.792 21.7194 57.184C21.0314 56.576 20.6874 55.616 20.6874 54.304C20.6874 53.216 20.9114 52.008 21.3594 50.68C21.8074 49.352 22.5274 48.208 23.5194 47.248C24.5114 46.272 25.7594 45.784 27.2634 45.784C29.3114 45.784 30.3354 47.064 30.3354 49.624V49.648C30.3834 49.664 30.4714 49.672 30.5994 49.672C31.1274 49.672 31.7354 49.536 32.4234 49.264C33.1114 48.976 33.7354 48.632 34.2954 48.232L34.5114 48.88C34.0474 49.376 33.4394 49.8 32.6874 50.152C31.9514 50.488 31.1434 50.728 30.2634 50.872C30.1354 52.328 29.8074 53.6 29.2794 54.688C28.7514 55.776 28.0714 56.616 27.2394 57.208C26.4074 57.8 25.5034 58.096 24.5274 58.096ZM25.4874 55.936C25.8714 55.936 26.2554 55.72 26.6394 55.288C27.0234 54.84 27.3594 54.24 27.6474 53.488C27.9354 52.72 28.1434 51.872 28.2714 50.944C27.8394 50.848 27.6234 50.512 27.6234 49.936C27.6234 49.28 27.8714 48.848 28.3674 48.64C28.3354 48.112 28.2554 47.752 28.1274 47.56C27.9994 47.352 27.7754 47.248 27.4554 47.248C26.9274 47.248 26.4154 47.632 25.9194 48.4C25.4234 49.168 25.0234 50.088 24.7194 51.16C24.4154 52.232 24.2634 53.176 24.2634 53.992C24.2634 54.76 24.3514 55.28 24.5274 55.552C24.7034 55.808 25.0234 55.936 25.4874 55.936ZM34.4503 58.144C33.5383 58.144 32.7783 57.832 32.1703 57.208C31.5623 56.584 31.2583 55.608 31.2583 54.28C31.2583 53.096 31.4903 51.856 31.9543 50.56C32.4343 49.248 33.1383 48.144 34.0663 47.248C35.0103 46.336 36.1303 45.88 37.4263 45.88C38.0823 45.88 38.5703 45.992 38.8903 46.216C39.2103 46.44 39.3703 46.736 39.3703 47.104V47.272L39.6343 46H43.0903L41.3623 54.16C41.2983 54.4 41.2663 54.656 41.2663 54.928C41.2663 55.616 41.5943 55.96 42.2503 55.96C42.6983 55.96 43.0823 55.752 43.4023 55.336C43.7383 54.92 44.0023 54.376 44.1943 53.704H45.2023C44.6103 55.432 43.8743 56.608 42.9943 57.232C42.1303 57.84 41.2583 58.144 40.3783 58.144C39.7063 58.144 39.1623 57.96 38.7463 57.592C38.3463 57.208 38.1063 56.656 38.0263 55.936C37.5623 56.592 37.0423 57.128 36.4663 57.544C35.9063 57.944 35.2343 58.144 34.4503 58.144ZM36.0103 55.816C36.4103 55.816 36.8023 55.632 37.1863 55.264C37.5863 54.88 37.8583 54.36 38.0023 53.704L39.1543 48.28C39.1543 48.072 39.0743 47.872 38.9143 47.68C38.7543 47.472 38.5063 47.368 38.1703 47.368C37.5303 47.368 36.9543 47.744 36.4423 48.496C35.9303 49.232 35.5303 50.128 35.2423 51.184C34.9543 52.224 34.8103 53.144 34.8103 53.944C34.8103 54.744 34.9223 55.256 35.1463 55.48C35.3863 55.704 35.6743 55.816 36.0103 55.816ZM45.8351 46H49.2911L48.9791 47.488C49.5231 47.008 50.0111 46.64 50.4431 46.384C50.8911 46.128 51.3711 46 51.8831 46C52.3951 46 52.7951 46.176 53.0831 46.528C53.3871 46.88 53.5391 47.304 53.5391 47.8C53.5391 48.264 53.3871 48.672 53.0831 49.024C52.7791 49.376 52.3551 49.552 51.8111 49.552C51.4591 49.552 51.2191 49.472 51.0911 49.312C50.9791 49.136 50.8911 48.888 50.8271 48.568C50.7791 48.36 50.7311 48.208 50.6831 48.112C50.6351 48.016 50.5471 47.968 50.4191 47.968C50.0831 47.968 49.7951 48.04 49.5551 48.184C49.3311 48.312 49.0351 48.544 48.6671 48.88L46.7471 58H43.2911L45.8351 46ZM56.1066 58.144C55.1946 58.144 54.4346 57.832 53.8266 57.208C53.2186 56.584 52.9146 55.608 52.9146 54.28C52.9146 53.096 53.1466 51.856 53.6106 50.56C54.0906 49.248 54.7946 48.144 55.7226 47.248C56.6666 46.336 57.7866 45.88 59.0826 45.88C59.7386 45.88 60.2266 45.992 60.5466 46.216C60.8666 46.44 61.0266 46.736 61.0266 47.104V47.2L62.2026 41.68L65.7546 41.2L62.9946 54.16C62.9306 54.4 62.8986 54.632 62.8986 54.856C62.8986 55.496 63.2266 55.816 63.8826 55.816C64.1706 55.816 64.4266 55.768 64.6506 55.672C64.5866 56.472 64.2986 57.088 63.7866 57.52C63.2906 57.936 62.6986 58.144 62.0106 58.144C61.3706 58.144 60.8266 57.984 60.3786 57.664C59.9466 57.328 59.6586 56.824 59.5146 56.152C58.5546 57.48 57.4186 58.144 56.1066 58.144ZM57.6666 55.816C58.0186 55.816 58.3706 55.664 58.7226 55.36C59.0906 55.056 59.3626 54.632 59.5386 54.088L59.6346 53.704L60.8106 48.208C60.6666 47.648 60.3386 47.368 59.8266 47.368C59.1866 47.368 58.6106 47.744 58.0986 48.496C57.5866 49.232 57.1866 50.128 56.8986 51.184C56.6106 52.224 56.4666 53.144 56.4666 53.944C56.4666 54.744 56.5786 55.256 56.8026 55.48C57.0426 55.704 57.3306 55.816 57.6666 55.816Z" fill="#292929"></path>
    </g>
    <defs>
      <clipPath id="clip0_2_1160">
        <rect width="76" height="95" fill="white"></rect>
      </clipPath>
    </defs>
  </symbol>
  <symbol xmlns="http://www.w3.org/2000/svg" viewBox="0 0 24 24" id="phone">
    <g clip-path="url(#clip0_2_1213)">
      <path d="M23.9481 18.5956C23.8802 18.3911 23.4483 18.0898 22.6528 17.6924C22.4372 17.5671 22.1301 17.3969 21.7328 17.181C21.335 16.965 20.974 16.7661 20.6504 16.5842C20.3261 16.4024 20.0222 16.2263 19.7384 16.0561C19.693 16.022 19.551 15.9227 19.3123 15.7576C19.0735 15.5929 18.872 15.4707 18.707 15.391C18.5422 15.3118 18.3802 15.2719 18.2211 15.2719C17.9939 15.2719 17.7101 15.4339 17.3693 15.7576C17.0285 16.0816 16.7159 16.4336 16.432 16.8147C16.148 17.1955 15.8468 17.5475 15.5289 17.8714C15.2106 18.1954 14.949 18.3572 14.7447 18.3572C14.6422 18.3572 14.5143 18.3286 14.361 18.2722C14.2078 18.2154 14.0913 18.1668 14.0113 18.1276C13.932 18.0875 13.7959 18.0082 13.6026 17.8885C13.409 17.7692 13.3013 17.7038 13.2786 17.6924C11.7218 16.8286 10.3867 15.8399 9.273 14.7266C8.15962 13.6127 7.17084 12.2777 6.30725 10.7208C6.29591 10.6981 6.23042 10.5901 6.11119 10.397C5.99179 10.2038 5.91221 10.0676 5.87245 9.98781C5.83268 9.90835 5.78439 9.79181 5.72767 9.63844C5.67095 9.48506 5.64248 9.3573 5.64248 9.25491C5.64248 9.05049 5.80445 8.789 6.12833 8.47079C6.45215 8.15276 6.80451 7.8515 7.18505 7.56762C7.56589 7.28374 7.91789 6.97114 8.24183 6.63036C8.56565 6.2894 8.72756 6.00546 8.72756 5.77824C8.72756 5.61925 8.6878 5.45716 8.60834 5.29244C8.52882 5.12737 8.40667 4.92594 8.24183 4.68719C8.07693 4.44856 7.97753 4.30665 7.94338 4.26098C7.77311 3.97709 7.59717 3.67315 7.41514 3.34927C7.23311 3.02545 7.03442 2.66449 6.81842 2.26682C6.6026 1.86932 6.43227 1.5624 6.30713 1.34651C5.90964 0.551227 5.60856 0.119224 5.40397 0.0512838C5.32438 0.0171941 5.20498 0 5.04605 0C4.73907 0 4.33859 0.0567167 3.84432 0.170508C3.34987 0.284121 2.96079 0.403286 2.67667 0.52848C2.10849 0.766989 1.50628 1.46013 0.869857 2.60766C0.290332 3.6756 0.000598907 4.73262 0.000598907 5.77794C0.000598907 6.08451 0.0204796 6.38278 0.060241 6.67281C0.100002 6.96254 0.171047 7.28929 0.273436 7.65299C0.375645 8.01658 0.458093 8.28667 0.520422 8.46255C0.58281 8.63855 0.699289 8.95384 0.869797 9.40852C1.04007 9.86309 1.14245 10.1414 1.17654 10.2436C1.57422 11.3573 2.0458 12.3515 2.59118 13.2266C3.4885 14.681 4.71304 16.1841 6.26409 17.7353C7.8152 19.2864 9.31802 20.5108 10.7726 21.4085C11.6475 21.9538 12.6421 22.4254 13.7556 22.8233C13.8579 22.8573 14.1362 22.9594 14.5906 23.1303C15.0451 23.3007 15.3605 23.4171 15.5365 23.4796C15.7126 23.5422 15.9828 23.6247 16.346 23.7271C16.7101 23.8295 17.0366 23.9005 17.3263 23.9406C17.6162 23.9798 17.9145 24.0001 18.2212 24.0001C19.2664 24.0001 20.3235 23.7101 21.3916 23.1307C22.539 22.4945 23.232 21.8922 23.4706 21.3236C23.5961 21.0397 23.715 20.6506 23.8286 20.1561C23.9426 19.6619 23.9992 19.2615 23.9992 18.9545C23.9995 18.795 23.9824 18.6759 23.9481 18.5956Z"></path>
    </g>
    <defs>
      <clipPath id="clip0_2_1213">
        <rect width="24" height="24" fill="white"></rect>
      </clipPath>
    </defs>
  </symbol>
  <symbol xmlns="http://www.w3.org/2000/svg" viewBox="0 0 67 21" id="shape 3 circle">
    <path id="Combined shape 2204" fill-rule="evenodd" clip-rule="evenodd" d="M33.4998 -0.000976562C39.2989 -0.000976562 43.9998 4.70002 43.9998 10.4991C43.9998 16.2982 39.2989 20.9992 33.4998 20.9992C27.7009 20.9992 22.9999 16.2982 22.9999 10.4991C22.9999 4.70002 27.7009 -0.000976562 33.4998 -0.000976562ZM60.4999 3.99937C64.0897 3.99937 66.9999 6.90937 66.9999 10.4991C66.9999 14.0893 64.0897 16.9996 60.4999 16.9996C56.91 16.9996 53.9998 14.0893 53.9998 10.4991C53.9998 6.90937 56.91 3.99937 60.4999 3.99937ZM12.9999 10.4991C12.9999 6.90937 10.0897 3.99937 6.49994 3.99937C2.90999 3.99937 -0.00012207 6.90937 -0.00012207 10.4991C-0.00012207 14.0893 2.90999 16.9996 6.49994 16.9996C10.0897 16.9996 12.9999 14.0893 12.9999 10.4991Z"></path>
  </symbol>
  <symbol xmlns="http://www.w3.org/2000/svg" viewBox="0 0 52 52" id="surf">
    <path d="M47.6224 4.37754C47.352 4.10692 46.9749 3.97023 46.5941 4.00545C46.4351 4.01989 42.6411 4.38072 37.4378 6.12723C20.5036 11.3426 9.29627 27.7628 4.08474 39.6415C3.7567 40.4259 4.41948 41.4759 5.41151 41.3891L11.1678 40.8291L10.6078 46.5849C10.5465 47.4123 11.3497 48.2837 12.3555 47.9116C33.0348 38.4891 45.6483 24.0671 47.9947 5.40583C48.0294 5.0248 47.8931 4.64799 47.6224 4.37754ZM30.9597 32.7069C28.6747 34.7864 26.4223 36.574 24.3403 38.0798V16.1341C26.5228 14.3454 28.7848 12.8957 30.9597 11.7252V32.7069ZM18.3821 41.9794C16.3358 43.1817 14.6086 44.0592 13.387 44.6383L13.885 39.5196C13.9589 38.8536 13.3427 38.0111 12.4774 38.1122L7.36042 38.6099C9.08912 34.9423 13.7449 26.4028 21.7627 18.4555V39.8653C20.5271 40.6844 19.3872 41.3889 18.3821 41.9794ZM43.405 13.8128C41.8914 18.2983 38.9521 24.7742 33.5372 30.2415V10.4412C37.0645 8.73768 42.4534 7.21067 45.194 6.80577C44.9314 8.3448 44.4041 10.8517 43.405 13.8128Z"></path>
  </symbol>
  <symbol xmlns="http://www.w3.org/2000/svg" viewBox="0 0 52 52" id="table">
    <g clip-path="url(#clip0_2_1032)">
      <path d="M46.7109 19.5547H37.4859C37.4867 19.5466 37.4881 19.5386 37.489 19.5305C38.5624 18.6069 39.4204 17.5102 40.0436 16.264C40.2435 15.8644 40.2221 15.3899 39.9873 15.0099C39.7523 14.6298 39.3374 14.3984 38.8906 14.3984H36.9008C36.4691 13.1771 35.8389 12.0492 35.0187 11.0309C35.1239 9.62022 34.955 8.23997 34.5149 6.9198C34.3737 6.49596 34.023 6.1755 33.5882 6.07289C33.1533 5.97019 32.6965 6.10013 32.3805 6.41595L30.9706 7.82584C29.8057 7.26897 28.5654 6.91748 27.2672 6.77663C26.2944 5.63065 25.1731 4.72358 23.9983 4.13612C23.5987 3.93631 23.1243 3.95762 22.7441 4.19249C22.3642 4.42736 22.1328 4.84226 22.1328 5.28905V7.36479C20.9116 7.79645 19.7835 8.4268 18.7653 9.2469C17.3548 9.1418 15.9743 9.31067 14.6544 9.75076C14.2305 9.89204 13.9101 10.2427 13.8074 10.6775C13.7048 11.1123 13.8346 11.5693 14.1505 11.8851L15.5601 13.2948C15.0029 14.4606 14.6513 15.7017 14.5107 17.0009C13.647 17.7441 12.9231 18.5995 12.3484 19.5548H5.28906C4.57716 19.5548 4 20.1319 4 20.8438V26.0001C4 26.712 4.57716 27.2891 5.28906 27.2891H6.66406V46.711C6.66406 47.4229 7.24122 48.0001 7.95312 48.0001H13.1094C13.8213 48.0001 14.3984 47.4229 14.3984 46.711V42.3416L26 37.701L37.6016 42.3416V46.7109C37.6016 47.4228 38.1787 48 38.8906 48H44.0469C44.7588 48 45.3359 47.4228 45.3359 46.7109V27.2891H46.7109C47.4228 27.2891 48 26.7119 48 26V20.8437C48 20.1318 47.4228 19.5547 46.7109 19.5547ZM16.5384 18.6726C16.8324 18.445 17.0138 18.1015 17.0359 17.7302C17.122 16.2914 17.5325 14.9395 18.2563 13.7122C18.5549 13.2059 18.473 12.5616 18.0574 12.1459L17.7103 11.7988C18.1413 11.7856 18.5778 11.8068 19.0183 11.8626C19.3871 11.9093 19.7584 11.7945 20.0365 11.5475C21.1136 10.5906 22.3613 9.92383 23.745 9.56547C24.3137 9.41835 24.7109 8.90522 24.7109 8.31775V7.80771C25.0177 8.10952 25.3132 8.44287 25.5929 8.80415C25.8206 9.09815 26.1641 9.27948 26.5352 9.30165C27.974 9.38758 29.3259 9.79819 30.5533 10.522C31.0597 10.8205 31.7039 10.7387 32.1195 10.3231L32.4668 9.97591C32.48 10.4069 32.4588 10.8435 32.403 11.284C32.3563 11.6529 32.4711 12.0241 32.7182 12.3022C33.675 13.3793 34.3418 14.627 34.7001 16.0107C34.8474 16.5794 35.3606 16.9766 35.948 16.9766H36.4345C36.1384 17.2916 35.8137 17.586 35.4617 17.8586C35.1677 18.0863 34.9864 18.4298 34.9642 18.8009C34.9491 19.0536 34.923 19.3052 34.8872 19.5548H29.6455C29.7886 19.1513 29.8672 18.7176 29.8672 18.2657C29.8672 16.1333 28.1324 14.3985 26 14.3985C23.8676 14.3985 22.1328 16.1333 22.1328 18.2657C22.1328 18.7176 22.2114 19.1513 22.3545 19.5548H15.5662C15.8624 19.2397 16.1865 18.9451 16.5384 18.6726ZM27.2891 18.2656C27.2891 18.9764 26.7108 19.5547 26 19.5547C25.2892 19.5547 24.7109 18.9764 24.7109 18.2656C24.7109 17.5548 25.2892 16.9766 26 16.9766C26.7108 16.9766 27.2891 17.5548 27.2891 18.2656ZM11.8203 45.4219H9.24219V27.2891H11.8203C11.8203 27.2803 11.8204 40.0167 11.8203 45.4219ZM14.3984 39.5648V33.0603L22.5291 36.3125L14.3984 39.5648ZM37.6016 39.5648L29.4709 36.3125L37.6016 33.0603V39.5648ZM37.6016 30.2835L26 34.9242L14.3984 30.2835V27.2891H37.6016V30.2835ZM42.7578 45.4219H40.1797C40.1797 43.1353 40.1797 30.0464 40.1797 27.2891H42.7578V45.4219ZM45.4219 24.7109H6.57812V22.1328H45.4219V24.7109Z"></path>
    </g>
    <defs>
      <clipPath id="clip0_2_1032">
        <rect width="44" height="44" fill="white" transform="translate(4 4)"></rect>
      </clipPath>
    </defs>
  </symbol>
  <symbol xmlns="http://www.w3.org/2000/svg" viewBox="0 0 32 32" id="thickness">
    <path d="M26.5938 9.48438H5.45312C4.6765 9.48438 4.04688 10.114 4.04688 10.8906C4.04688 11.6673 4.6765 12.2969 5.45312 12.2969H26.5938C27.3704 12.2969 28 11.6673 28 10.8906C28 10.114 27.3704 9.48438 26.5938 9.48438Z"></path>
    <path d="M27.0625 4H4.9375C4.41972 4 4 4.41972 4 4.9375C4 5.45528 4.41972 5.875 4.9375 5.875H27.0625C27.5803 5.875 28 5.45528 28 4.9375C28 4.41972 27.5803 4 27.0625 4Z"></path>
    <path d="M25.6562 23.3125H6.39062C5.09622 23.3125 4.04688 24.3618 4.04688 25.6562C4.04688 26.9507 5.09622 28 6.39062 28H25.6562C26.9507 28 28 26.9507 28 25.6562C28 24.3618 26.9507 23.3125 25.6562 23.3125Z"></path>
    <path d="M26.125 15.9062H5.92188C4.88636 15.9062 4.04688 16.7457 4.04688 17.7812C4.04688 18.8168 4.88636 19.6562 5.92188 19.6562H26.125C27.1605 19.6562 28 18.8168 28 17.7812C28 16.7457 27.1605 15.9062 26.125 15.9062Z"></path>
  </symbol>
  <symbol xmlns="http://www.w3.org/2000/svg" viewBox="0 0 24 24" id="tw">
    <g clip-path="url(#clip0_2_1214)">
      <path d="M23.346 2.41963C22.3651 3.00818 21.3188 3.40055 20.2071 3.66213C19.2916 2.68121 18.049 2.09265 16.6104 2.09265C13.8638 2.09265 11.7057 4.38148 11.7057 7.12807C11.7057 7.52044 11.7711 7.91281 11.8365 8.30519C7.71662 8.0436 4.11989 6.01636 1.70027 2.94279C1.3079 3.66213 1.04632 4.57766 1.04632 5.4932C1.04632 7.25886 1.89646 8.76295 3.26975 9.67848C2.48501 9.67848 1.70027 9.4169 1.04632 9.02453V9.15532C1.04632 11.5749 2.74659 13.6676 4.97003 14.1253C4.57766 14.2561 4.11989 14.3215 3.66213 14.3215C3.33515 14.3215 3.00817 14.3215 2.74659 14.2561C3.40054 16.2834 5.16621 17.7221 7.32425 17.7875C5.62398 19.1608 3.53133 19.9455 1.17711 19.9455C0.784741 19.9455 0.392371 19.9455 0 19.8801C2.15804 21.3188 4.77384 22.1689 7.52044 22.1689C16.6104 22.1689 21.515 14.4523 21.515 7.78202C21.515 7.58584 21.515 7.32426 21.515 7.12807C22.4959 6.40873 23.346 5.55859 24 4.51227C23.1499 4.90464 22.1689 5.16622 21.188 5.29701C22.1689 4.57767 22.9537 3.59674 23.346 2.41963Z"></path>
    </g>
    <defs>
      <clipPath id="clip0_2_1214">
        <rect width="24" height="24"></rect>
      </clipPath>
    </defs>
  </symbol>
  <symbol xmlns="http://www.w3.org/2000/svg" viewBox="0 0 32 32" id="weight">
    <path d="M26.983 25.137L24.8878 12.6207C24.6908 11.4406 23.6687 10.5781 22.4724 10.5781H19.3245C19.6937 9.93501 19.9047 9.19002 19.9047 8.39667C19.9047 5.97245 17.9328 4 15.5081 4C13.0838 4 11.1114 5.97245 11.1114 8.39667C11.1114 9.19002 11.3225 9.93501 11.6916 10.5781H8.54367C7.34689 10.5781 6.32532 11.4416 6.12828 12.6218L4.03366 25.1396C3.91461 25.8492 4.11476 26.5797 4.58006 27.1287C5.04588 27.6782 5.72901 28 6.44957 28H24.5686C25.2892 28 25.9723 27.6782 26.4381 27.1287C26.9029 26.5786 27.1025 25.8472 26.983 25.137ZM15.5086 6.56148C16.5203 6.56148 17.3438 7.38498 17.3438 8.39719C17.3438 9.40941 16.5203 10.2324 15.5086 10.2324C14.4964 10.2324 13.6729 9.40889 13.6729 8.39667C13.6729 7.38446 14.4964 6.56148 15.5086 6.56148Z"></path>
  </symbol>
  <symbol xmlns="http://www.w3.org/2000/svg" viewBox="0 0 24 24" id="vk">
    <g clip-path="url(#clip0_2_1215)">
      <path d="M23.8692 17.5259C23.8692 17.4605 23.8038 17.3951 23.8038 17.3951C23.4114 16.6757 22.5613 15.6948 21.3842 14.6485C20.861 14.1253 20.5341 13.7984 20.4033 13.6022C20.1417 13.2752 20.0763 12.9482 20.2071 12.6212C20.3379 12.3597 20.6649 11.8365 21.3188 10.9864C21.6458 10.5286 21.9074 10.2016 22.1035 9.94004C23.5422 8.04358 24.1962 6.80108 24 6.27792L23.9346 6.14712C23.8692 5.95094 23.7384 5.88554 23.5422 5.82015C23.3461 5.75475 23.0845 5.75475 22.7575 5.82015H19.1608C19.0954 5.82015 19.03 5.82015 18.8992 5.82015C18.7684 5.82015 18.7684 5.88554 18.7684 5.88554H18.703L18.6376 5.95094C18.5722 5.95094 18.5722 6.01633 18.5068 6.08173C18.4414 6.14713 18.4414 6.21252 18.376 6.27792C17.9837 7.25884 17.5259 8.23977 17.0681 9.0899C16.7411 9.61306 16.4796 10.0708 16.218 10.4632C15.9564 10.8556 15.7602 11.1172 15.564 11.3133C15.3678 11.5095 15.2371 11.6403 15.1063 11.7711C14.9755 11.9019 14.8447 11.9019 14.7793 11.9019C14.7139 11.9019 14.6485 11.8365 14.5831 11.8365C14.4523 11.7711 14.3869 11.6403 14.3215 11.5095C14.2561 11.3787 14.1907 11.2479 14.1907 11.0518C14.1907 10.8556 14.1253 10.6594 14.1253 10.5286C14.1253 10.3978 14.1253 10.2016 14.1253 9.94004C14.1253 9.67846 14.1253 9.48227 14.1253 9.41688C14.1253 9.0899 14.1253 8.76293 14.1253 8.37056C14.1253 7.97819 14.1253 7.71661 14.1253 7.52042C14.1253 7.32424 14.1253 7.06266 14.1253 6.80108C14.1253 6.5395 14.1253 6.34331 14.0599 6.21252C14.0599 6.08173 13.9946 5.95094 13.9292 5.82015C13.8638 5.68936 13.7984 5.55857 13.6676 5.49317C13.5368 5.42778 13.406 5.36238 13.2752 5.29699C12.8174 5.1662 12.2943 5.1662 11.5749 5.1662C10.0055 5.1662 9.02452 5.23159 8.56676 5.49317C8.37057 5.55857 8.23978 5.68936 8.10899 5.88554C7.9782 6.08173 7.91281 6.14712 8.0436 6.21252C8.56676 6.27792 8.89373 6.4741 9.08992 6.73568L9.15531 6.86647C9.22071 6.99726 9.2861 7.19345 9.3515 7.45503C9.41689 7.71661 9.41689 8.04358 9.48229 8.37056C9.54768 8.95911 9.54768 9.48227 9.48229 9.94004C9.41689 10.3978 9.41689 10.7248 9.3515 10.921C9.2861 11.1825 9.2861 11.3787 9.15531 11.5095C9.08992 11.6403 9.02452 11.7711 9.02452 11.7711C9.02452 11.8365 8.95913 11.8365 8.95913 11.8365C8.82834 11.9019 8.76294 11.9019 8.63215 11.9019C8.50136 11.9019 8.37057 11.8365 8.23978 11.7057C8.0436 11.5749 7.91281 11.4441 7.71662 11.2479C7.52044 11.0518 7.32425 10.7902 7.12807 10.3978C6.93188 10.0054 6.6703 9.61306 6.40872 9.0899L6.21253 8.69753C6.08174 8.43595 5.88556 8.10898 5.68937 7.65121C5.49319 7.19345 5.297 6.80108 5.10082 6.34331C5.03542 6.21252 4.90463 6.08173 4.77384 5.95094H4.70845C4.64305 5.88554 4.57766 5.88554 4.51226 5.82015C4.44687 5.82015 4.31608 5.75475 4.25068 5.75475H0.850136C0.457766 5.75475 0.196185 5.88554 0.0653951 6.01633V6.08173C0 6.14713 0 6.21252 0 6.27792C0 6.34331 0 6.4741 0.0653951 6.60489C0.588556 7.782 1.11172 8.89372 1.70027 10.0054C2.28883 11.1172 2.81199 11.9673 3.20436 12.6212C3.66213 13.2752 4.0545 13.9291 4.51226 14.5177C4.97003 15.1063 5.23161 15.4986 5.42779 15.6294C5.55858 15.8256 5.68937 15.891 5.75477 16.0218L6.08174 16.3488C6.27793 16.5449 6.60491 16.8065 6.93188 17.0681C7.32425 17.3297 7.71662 17.5913 8.23978 17.9182C8.69755 18.1798 9.2861 18.4414 9.87466 18.5722C10.5286 18.7684 11.1172 18.8338 11.7057 18.7684H13.1444C13.406 18.7684 13.6676 18.6376 13.7984 18.5068L13.8638 18.4414C13.9292 18.376 13.9292 18.3106 13.9292 18.1798C13.9292 18.049 13.9946 17.9836 13.9946 17.8528C13.9946 17.5259 13.9946 17.1989 14.0599 16.8719C14.1253 16.6103 14.1907 16.3488 14.2561 16.218C14.3215 16.0872 14.4523 15.9564 14.5177 15.8256C14.6485 15.6948 14.7139 15.6948 14.7139 15.6294C14.7793 15.6294 14.7793 15.564 14.8447 15.564C15.0409 15.4986 15.3025 15.564 15.564 15.7602C15.8256 15.9564 16.0872 16.218 16.3488 16.4795C16.6104 16.7411 16.8719 17.0681 17.1989 17.4605C17.5259 17.7875 17.8529 18.1144 18.049 18.2452L18.3106 18.376C18.5068 18.5068 18.703 18.5722 18.9646 18.6376C19.2262 18.703 19.4877 18.7684 19.6839 18.703L22.8883 18.6376C23.2153 18.6376 23.4768 18.5722 23.6076 18.5068C23.8038 18.376 23.8692 18.3106 23.9346 18.1798C24 18.049 24 17.9182 23.9346 17.7221C23.9346 17.7221 23.9346 17.5913 23.8692 17.5259Z"></path>
    </g>
    <defs>
      <clipPath id="clip0_2_1215">
        <rect width="24" height="24"></rect>
      </clipPath>
    </defs>
  </symbol>
  <symbol xmlns="http://www.w3.org/2000/svg" viewBox="0 0 52 52" id="car">
    <path d="M37.2311 30.4117C34.1728 30.4117 31.6849 32.8997 31.6849 35.958C31.6849 39.0162 34.1728 41.5042 37.2311 41.5042C40.2899 41.5042 42.7773 39.0162 42.7773 35.958C42.7773 32.8997 40.2893 30.4117 37.2311 30.4117ZM37.2311 38.7311C35.7017 38.7311 34.458 37.4873 34.458 35.958C34.458 34.4286 35.7017 33.1849 37.2311 33.1849C38.7604 33.1849 40.0042 34.4286 40.0042 35.958C40.0042 37.4874 38.7604 38.7311 37.2311 38.7311Z"></path>
    <path d="M18.2815 30.4117C15.2233 30.4117 12.7353 32.8997 12.7353 35.958C12.7353 39.0162 15.2233 41.5042 18.2815 41.5042C21.3398 41.5042 23.8278 39.0162 23.8278 35.958C23.8278 32.8997 21.3398 30.4117 18.2815 30.4117ZM18.2815 38.7311C16.7522 38.7311 15.5084 37.4873 15.5084 35.958C15.5084 34.4286 16.7522 33.1849 18.2815 33.1849C19.8104 33.1849 21.0546 34.4286 21.0546 35.958C21.0546 37.4874 19.8109 38.7311 18.2815 38.7311Z"></path>
    <path d="M40.966 14.5367C40.7303 14.0685 40.251 13.7731 39.7269 13.7731H32.4243V16.5462H38.8718L42.6474 24.0558L45.1256 22.8097L40.966 14.5367Z"></path>
    <path d="M33.0715 34.6177H22.5799V37.3908H33.0715V34.6177Z"></path>
    <path d="M14.1218 34.6177H9.31515C8.54928 34.6177 7.92864 35.2384 7.92864 36.0042C7.92864 36.7701 8.54936 37.3907 9.31515 37.3907H14.1219C14.8878 37.3907 15.5084 36.77 15.5084 36.0042C15.5084 35.2383 14.8877 34.6177 14.1218 34.6177Z"></path>
    <path d="M47.7088 26.1412L44.9815 22.6285C44.7195 22.2902 44.3151 22.0924 43.8866 22.0924H33.8109V12.3865C33.8109 11.6206 33.1902 11 32.4244 11H9.31515C8.54928 11 7.92864 11.6207 7.92864 12.3865C7.92864 13.1523 8.54936 13.773 9.31515 13.773H31.0378V23.4789C31.0378 24.2448 31.6586 24.8654 32.4243 24.8654H43.2076L45.2269 27.4666V34.6175H41.3907C40.6249 34.6175 40.0042 35.2382 40.0042 36.004C40.0042 36.7699 40.6249 37.3906 41.3907 37.3906H46.6134C47.3793 37.3906 47.9999 36.7698 48 36.004V26.9916C48 26.6838 47.8974 26.3843 47.7088 26.1412Z"></path>
    <path d="M14.0294 27.5925H7.65123C6.88535 27.5925 6.26471 28.2132 6.26471 28.979C6.26471 29.7449 6.88544 30.3655 7.65123 30.3655H14.0293C14.7952 30.3655 15.4159 29.7448 15.4159 28.979C15.4159 28.2132 14.7952 27.5925 14.0294 27.5925Z"></path>
    <path d="M17.2185 22.1386H5.38652C4.62073 22.1386 4 22.7594 4 23.5252C4 24.2911 4.62073 24.9117 5.38652 24.9117H17.2185C17.9844 24.9117 18.605 24.291 18.605 23.5252C18.605 22.7594 17.9844 22.1386 17.2185 22.1386Z"></path>
    <path d="M19.4832 16.6849H7.65123C6.88535 16.6849 6.26471 17.3056 6.26471 18.0714C6.26471 18.8373 6.88544 19.4579 7.65123 19.4579H19.4832C20.2491 19.4579 20.8697 18.8372 20.8697 18.0714C20.8698 17.3056 20.2491 16.6849 19.4832 16.6849Z"></path>
  </symbol>
  <symbol xmlns="http://www.w3.org/2000/svg" viewBox="0 0 32 32" id="width">
    <path d="M10.4085 17.4798L7.5133 14.5834L7.515 24.4948L17.4259 24.4959L14.5295 21.6007L21.5915 14.541L24.4861 17.4357L24.4856 7.52424L14.5736 7.52311L17.4694 10.4189L10.4085 17.4798Z"></path>
  </symbol>
  <symbol xmlns="http://www.w3.org/2000/svg" viewBox="0 0 38 38" id="arrows 1">
    <g clip-path="url(#clip0_142_888)">
      <path d="M18.2132 0.326128L11.5439 6.99543C11.1091 7.43012 11.1091 8.13505 11.5439 8.56983L14.693 11.7189C14.9565 11.9824 15.3191 12.0865 15.6606 12.0304V15.6602H12.0307C12.088 15.3124 11.9769 14.9502 11.7194 14.6927L8.57027 11.5436C8.13587 11.1091 7.43056 11.1088 6.99586 11.5436L0.326568 18.2128C-0.108205 18.6475 -0.108205 19.3525 0.326568 19.7873L6.99586 26.4566C7.43027 26.891 8.13557 26.8913 8.57027 26.4566L11.7194 23.3074C11.9771 23.0497 12.0879 22.6874 12.0307 22.3399H15.6605V25.9697C15.3191 25.9136 14.9563 26.0177 14.6929 26.2811L11.5438 29.4302C11.1091 29.8649 11.1091 30.5698 11.5438 31.0046L18.2131 37.6739C18.6479 38.1087 19.3528 38.1087 19.7875 37.6739L26.4568 31.0046C26.8912 30.5701 26.8916 29.8649 26.4568 29.4302L23.3077 26.2811C23.0443 26.0177 22.6816 25.9136 22.3402 25.9697V22.3399H25.9701C25.9128 22.6878 26.0239 23.05 26.2815 23.3074L29.4306 26.4566C29.865 26.8911 30.5703 26.8914 31.005 26.4566L37.6743 19.7873C38.109 19.3526 38.109 18.6477 37.6743 18.2129L31.005 11.5436C30.5706 11.1091 29.8653 11.1089 29.4306 11.5436L26.2815 14.6928C26.0237 14.9505 25.9129 15.3128 25.9701 15.6603H22.3402V12.0305C22.6816 12.0865 23.0443 11.9825 23.3077 11.7191L26.4568 8.56998C26.8914 8.1355 26.8915 7.43035 26.4568 6.99557L19.7875 0.326276C19.3528 -0.108571 18.6479 -0.108571 18.2132 0.326128ZM22.5206 9.35736L22.0142 8.85097C21.3157 8.15235 20.1137 8.64694 20.1137 9.63813V16.7735C20.1137 17.3884 20.6121 17.8868 21.2269 17.8868H28.3623C29.3507 17.8868 29.8502 16.687 29.1495 15.9864L28.6431 15.48L30.2178 13.9052L35.3127 19.0001L30.2179 24.0951L28.6432 22.5203L29.1496 22.0139C29.8484 21.315 29.3532 20.1134 28.3623 20.1134H21.2269C20.6121 20.1134 20.1137 20.6118 20.1137 21.2267V28.362C20.1137 29.3538 21.3162 29.8474 22.0141 29.1492L22.5205 28.6428L24.0952 30.2175L19.0004 35.3124L13.9056 30.2174L15.4802 28.6427L15.9867 29.1491C16.6853 29.848 17.8871 29.3529 17.8871 28.362V21.2267C17.8871 20.6118 17.3886 20.1134 16.7738 20.1134H9.63842C8.65005 20.1134 8.15056 21.3132 8.85126 22.0138L9.35765 22.5202L7.78295 24.095L2.68806 19.0001L7.78288 13.9051L9.35758 15.4799L8.85118 15.9863C8.15234 16.6852 8.64753 17.8868 9.63842 17.8868H16.7738C17.3886 17.8868 17.8871 17.3884 17.8871 16.7735V9.63813C17.8871 8.65021 16.6874 8.1502 15.9867 8.85097L15.4802 9.35736L13.9056 7.78266L19.0004 2.68769L24.0952 7.78266L22.5206 9.35736Z"></path>
    </g>
    <defs>
      <clipPath id="clip0_142_888">
        <rect width="38" height="38"></rect>
      </clipPath>
    </defs>
  </symbol>
  <symbol xmlns="http://www.w3.org/2000/svg" viewBox="0 0 24 24" id="close">
    <g clip-path="url(#clip0_2_1092)">
      <path d="M16.2667 12L23.2 5.06667C24.2667 4 24.2667 2.4 23.2 1.46667L22.6667 0.933333C21.6 -0.133333 20 -0.133333 19.0667 0.933333L12 7.73333L5.06667 0.8C4 -0.266667 2.4 -0.266667 1.33333 0.8L0.8 1.33333C-0.266667 2.4 -0.266667 4 0.8 4.93333L7.73333 12L0.8 18.9333C-0.266667 20 -0.266667 21.6 0.8 22.5333L1.33333 23.2C2.4 24.2667 4 24.2667 4.93333 23.2L12 16.2667L18.9333 23.2C20 24.2667 21.6 24.2667 22.5333 23.2L23.0667 22.6667C24.1333 21.6 24.1333 20 23.0667 19.0667L16.2667 12Z" fill="#0D0E0F"></path>
    </g>
    <defs>
      <clipPath id="clip0_2_1092">
        <rect width="24" height="24"></rect>
      </clipPath>
    </defs>
  </symbol>
  <symbol xmlns="http://www.w3.org/2000/svg" viewBox="0 0 10 8" id="checkmark">
    <g id="checkmark" clip-path="url(#clip0_42506_232)">
      <path id="Vector" d="M9.44954 0.551587C8.80734 -0.184046 7.70642 -0.184046 7.06422 0.459633L3.66973 3.86193L2.93578 3.1263C2.29358 2.48262 1.19266 2.48262 0.550461 3.1263H0.458717C-0.183484 3.76998 -0.183484 4.87343 0.458717 5.5171L2.47707 7.54009C2.84404 7.90791 3.30275 7.99986 3.66973 7.99986C4.12844 7.99986 4.49542 7.81595 4.86239 7.54009L9.44954 2.94239C10.0917 2.29871 10.0917 1.19526 9.44954 0.551587Z"></path>
    </g>
    <defs>
      <clipPath id="clip0_42506_232">
        <rect width="10" height="8"></rect>
      </clipPath>
    </defs>
  </symbol>
  <symbol xmlns="http://www.w3.org/2000/svg" viewBox="0 0 68 68" id="feat-1">
    <path d="M35.875 32.1811V21.8166H40.025C49.9181 21.8166 57.9666 13.768 57.9666 3.875C57.9666 2.8395 57.1271 2 56.0916 2H50.0646C43.0369 2 36.9411 6.06275 33.9996 11.9622C31.0576 6.06262 24.9615 2 17.9334 2H11.9084C10.8729 2 10.0334 2.8395 10.0334 3.875C10.0334 13.7681 18.082 21.8166 27.975 21.8166H32.125V32.1811C15.3249 33.1521 2 47.0815 2 64.125C2 65.1605 2.8395 66 3.875 66H64.125C65.1605 66 66 65.1605 66 64.125C66 47.0815 52.6751 33.1521 35.875 32.1811ZM50.0646 5.75H54.0933C53.1726 12.692 47.2145 18.0666 40.025 18.0666H35.9981C36.9174 11.1243 42.8751 5.75 50.0646 5.75ZM27.975 18.0666C20.7854 18.0666 14.8272 12.692 13.9067 5.75H17.9334C25.123 5.75 31.0811 11.1246 32.0016 18.0666H27.975ZM5.8105 62.25C6.7385 47.9209 17.2449 40.245 24.0917 37.6657V42.3778C24.0917 42.9499 23.8689 43.4879 23.4641 43.8926L17.4391 49.9176C15.1423 52.2145 15.1423 55.9519 17.4391 58.2487L21.44 62.25H5.8105ZM26.7434 62.25L20.0906 55.5973C19.2543 54.7609 19.2534 53.4065 20.0906 52.5692L26.1156 46.5444C27.2288 45.4314 27.8417 43.9516 27.8417 42.3778V36.5489C29.8536 36.1014 31.9191 35.875 34 35.875C38.9144 35.875 43.6772 37.1336 47.9062 39.5337L37.5223 49.9178C35.2226 52.2174 35.2178 55.9449 37.5223 58.2489L41.5234 62.25H26.7434ZM46.8266 62.25L40.1739 55.5971C39.3382 54.7616 39.3371 53.4062 40.1739 52.5692L51.1001 41.6431C57.6121 46.6034 61.6477 54.1131 62.1879 62.2499H46.8266V62.25Z"></path>
  </symbol>
  <symbol xmlns="http://www.w3.org/2000/svg" viewBox="0 0 24 24" id="fb">
    <g clip-path="url(#clip0_2_1211)">
      <path d="M24 22.6921C24 23.4114 23.4114 24 22.6921 24H16.545V14.7139H19.6839L20.1417 11.1172H16.545V8.82834C16.545 7.78202 16.8065 7.06267 18.3106 7.06267H20.2071V3.79292C19.8801 3.72752 18.7684 3.66213 17.3951 3.66213C14.6485 3.66213 12.752 5.3624 12.752 8.43597V11.1172H9.61308V14.7139H12.752V24H1.3079C0.588556 24 0 23.4114 0 22.6921V1.3079C0 0.588556 0.588556 0 1.3079 0H22.6921C23.4114 0 24 0.588556 24 1.3079V22.6921Z"></path>
    </g>
    <defs>
      <clipPath id="clip0_2_1211">
        <rect width="24" height="24"></rect>
      </clipPath>
    </defs>
  </symbol>
  <symbol xmlns="http://www.w3.org/2000/svg" viewBox="0 0 68 68" id="feat-2">
    <path d="M53.8359 60.0312H47.8594V55.7812H50.5223C51.6225 55.7812 52.5145 54.8893 52.5145 53.7891C52.5145 52.6888 51.6225 51.7969 50.5223 51.7969H47.8594V47.8125H53.1785C54.2787 47.8125 55.1707 46.9205 55.1707 45.8203C55.1707 44.7201 54.2787 43.8281 53.1785 43.8281H47.8594V39.8438H50.5223C51.6225 39.8438 52.5145 38.9518 52.5145 37.8516C52.5145 36.7513 51.6225 35.8594 50.5223 35.8594H47.8594V31.875H53.1785C54.2787 31.875 55.1707 30.983 55.1707 29.8828C55.1707 28.7826 54.2787 27.8906 53.1785 27.8906H47.8594V23.9062H50.5223C51.6225 23.9062 52.5145 23.0143 52.5145 21.9141C52.5145 20.8138 51.6225 19.9219 50.5223 19.9219H47.8594V15.9375H53.1785C54.2787 15.9375 55.1707 15.0455 55.1707 13.9453C55.1707 12.8451 54.2787 11.9531 53.1785 11.9531H47.8594V7.96875H50.5223C51.6225 7.96875 52.5145 7.07678 52.5145 5.97656C52.5145 4.87634 51.6225 3.98438 50.5223 3.98438H47.8594V1.99219C47.8594 0.891969 46.9674 0 45.8672 0C44.767 0 43.875 0.891969 43.875 1.99219V60.0312H36.6821L37.7778 42.5H37.9051C39.0053 42.5 39.8973 41.608 39.8973 40.5078V27.2232C39.8973 22.8007 36.9982 19.0441 33.0014 17.7493C34.7475 16.7048 35.9195 14.7956 35.9195 12.6172C35.9195 9.32171 33.2384 6.64062 29.943 6.64062C26.6475 6.64062 23.9664 9.32171 23.9664 12.6172C23.9664 14.7946 25.1373 16.703 26.882 17.7479C22.8831 19.0415 19.982 22.7991 19.982 27.2232V40.5078C19.982 41.608 20.874 42.5 21.9742 42.5H22.0948L23.1905 60.0312H13.9922C12.892 60.0312 12 60.9232 12 62.0234V66.0078C12 67.108 12.892 68 13.9922 68C15.0924 68 15.9844 67.108 15.9844 66.0078V64.0156H51.8438V66.0078C51.8438 67.108 52.7357 68 53.8359 68C54.9362 68 55.8281 67.108 55.8281 66.0078V62.0234C55.8281 60.9232 54.9362 60.0312 53.8359 60.0312ZM29.943 10.625C31.0415 10.625 31.9352 11.5187 31.9352 12.6172C31.9352 13.7157 31.0415 14.6094 29.943 14.6094C28.8445 14.6094 27.9508 13.7157 27.9508 12.6172C27.9508 11.5187 28.8443 10.625 29.943 10.625ZM23.9664 27.2232C23.9664 23.9296 26.646 21.25 29.9398 21.25C33.2334 21.25 35.913 23.9296 35.913 27.2232V38.5156H23.9664V27.2232ZM26.0869 42.5H33.7856L32.6899 60.0312H27.1826L26.0869 42.5Z" fill="black"></path>
  </symbol>
</svg>