<svg width="0" height="0" class="hidden">
  <symbol xmlns="http://www.w3.org/2000/svg" viewBox="0 0 444 5" id="scale">
    <path fill-rule="evenodd" clip-rule="evenodd" d="M1.82512 0.458055H442.494C443.045 0.458055 443.491 0.905515 443.491 1.45539V3.45041C443.491 4.00029 443.045 4.44633 442.494 4.44633H1.82512C1.27473 4.44633 0.82819 4.00029 0.82819 3.45041V1.45539C0.82819 0.905515 1.27473 0.458055 1.82512 0.458055Z" ></path>
  </symbol>
  <symbol xmlns="http://www.w3.org/2000/svg" viewBox="0 0 14 17" id="volume">
    <path d="M11.1882 0.765597L5.01572 5.67385C4.56951 5.43215 4.05824 5.30201 3.51907 5.30201C1.77144 5.30201 0.358459 6.71499 0.358459 8.46262C0.358459 10.2103 1.77144 11.6232 3.51907 11.6232C4.05824 11.6232 4.56951 11.4838 5.01572 11.2514L11.1882 16.1689C11.997 16.8104 13.1868 16.234 13.1868 15.2022V1.72308C13.1868 0.69123 11.997 0.114883 11.1882 0.765597Z" ></path>
  </symbol>
  <symbol xmlns="http://www.w3.org/2000/svg" viewBox="0 0 12 12" id="circle player">
    <path fill-rule="evenodd" clip-rule="evenodd" d="M6.00315 0.0775688C9.29493 0.0775688 11.9634 2.74644 11.9634 6.03828C11.9634 9.3301 9.29493 12.0007 6.00315 12.0007C2.71135 12.0007 0.0428594 9.3301 0.0428594 6.03828C0.0428594 2.74644 2.71135 0.0775688 6.00315 0.0775688Z" ></path>
  </symbol>
  <symbol xmlns="http://www.w3.org/2000/svg" viewBox="0 0 76 110" id="play">
    <path d="M72.0144 61.7084L13.8553 108.044C8.29509 112.454 0.114471 108.491 0.114471 101.397V8.7261C0.114471 1.63197 8.29509 -2.33051 13.8553 2.07935L72.0144 48.4149C76.2325 51.8022 76.2325 58.3211 72.0144 61.7084Z"></path>
  </symbol>
</svg>